<svg xmlns="http://www.w3.org/2000/svg" version="1.1" xmlns:xlink="http://www.w3.org/1999/xlink" width="512" height="512" x="0" y="0" viewBox="0 0 512 512" style="enable-background:new 0 0 512 512" xml:space="preserve" class=""><g><path fill="#fec006" fill-rule="evenodd" d="M511.5 256.06c0 140.724-114.776 255.379-255.5 255.379S.5 396.785.5 256.06 115.276.56 256 .56s255.5 114.776 255.5 255.5z" clip-rule="evenodd" opacity="1" data-original="#fec006" class=""></path><path fill="#ffffff" d="M256 97.745c-87.263 0-158.255 70.992-158.255 158.255 0 87.262 70.992 158.254 158.255 158.254S414.254 343.262 414.254 256c0-87.263-70.991-158.255-158.254-158.255zm148.277 153.316h-21.265c-1.206-31.329-13.798-59.784-33.753-81.334l15.034-15.034c23.794 25.419 38.76 59.178 39.984 96.368zm-184.379 66.974c-3.172 2.312-6.052.575-6.862-.012s-3.35-2.8-2.12-6.534l10.324-31.571c2.151-6.633-.099-13.544-5.731-17.618l-26.916-19.467c-3.184-2.306-2.423-5.588-2.114-6.534.309-.952 1.62-4.043 5.539-4.043h.012l33.215.068c6.874 0 12.902-4.383 14.991-10.905l10.2-31.595c1.193-3.697 4.556-3.987 5.558-3.987 1.001 0 4.358.291 5.551 3.987l.006.006 10.212 31.583c2.12 6.627 7.999 10.911 14.985 10.911l33.221-.068h.012c3.919 0 5.23 3.091 5.539 4.043.309.946 1.069 4.228-2.114 6.534L296.49 262.3a15.663 15.663 0 0 0-5.724 17.631l10.317 31.558c1.224 3.74-1.323 5.947-2.133 6.534s-3.684 2.324-6.85.012l-26.823-19.566a15.645 15.645 0 0 0-18.551-.006zm41.041-210.312c37.19 1.224 70.948 16.19 96.368 39.984l-15.034 15.034c-21.55-19.955-50.005-32.547-81.334-33.753zm-9.878 0v21.265c-31.329 1.205-59.784 13.798-81.334 33.753l-15.04-15.028c25.419-23.794 59.184-38.766 96.374-39.99zm-103.36 46.982 15.034 15.022c-19.949 21.556-32.541 50.005-33.746 81.334h-21.265c1.223-37.184 16.189-70.943 39.977-96.356zm-39.978 106.234h21.265c1.206 31.329 13.798 59.778 33.746 81.334L147.7 357.295c-23.787-25.413-38.753-59.172-39.977-96.356zm143.338 143.338c-37.19-1.224-70.955-16.196-96.374-39.99l15.04-15.028c21.55 19.955 50.005 32.547 81.334 33.753zm9.878 0v-21.265c31.329-1.205 59.784-13.798 81.334-33.753l15.034 15.034c-25.419 23.794-59.178 38.76-96.368 39.984zm103.354-46.969-15.034-15.034c19.955-21.55 32.547-50.005 33.753-81.334h21.265c-1.224 37.189-16.19 70.948-39.984 96.368z" opacity="1" data-original="#ffffff"></path></g></svg>